<svg xmlns="http://www.w3.org/2000/svg" xmlns:xlink="http://www.w3.org/1999/xlink" width="290" zoomAndPan="magnify" viewBox="0 0 217.5 74.999997" height="100" preserveAspectRatio="xMidYMid meet" version="1.0">
  <defs>
    <clipPath id="606386cef7">
      <path d="M 0 0.0859375 L 217 0.0859375 L 217 74.914062 L 0 74.914062 Z M 0 0.0859375 " clip-rule="nonzero"/>
    </clipPath>
  </defs>
  <g clip-path="url(#606386cef7)">
  </g>
  <g fill="#000000" fill-opacity="1">
    <g transform="translate(4.636841, 54.434738)">
      <g>
        <path d="M 10.890625 -27.109375 L 0.1875 -27.109375 L 0.1875 -33.40625 L 29.3125 -33.40625 L 29.3125 -27.109375 L 18.609375 -27.109375 L 18.609375 0 L 10.890625 0 Z M 10.890625 -27.109375 "/>
      </g>
    </g>
  </g>
  <g fill="#000000" fill-opacity="1">
    <g transform="translate(35.553184, 54.434738)">
      <g>
        <path d="M 20.140625 0.578125 C 16.671875 0.578125 13.546875 -0.171875 10.765625 -1.671875 C 7.984375 -3.171875 5.800781 -5.234375 4.21875 -7.859375 C 2.644531 -10.484375 1.859375 -13.429688 1.859375 -16.703125 C 1.859375 -19.984375 2.644531 -22.9375 4.21875 -25.5625 C 5.800781 -28.1875 7.984375 -30.242188 10.765625 -31.734375 C 13.546875 -33.234375 16.671875 -33.984375 20.140625 -33.984375 C 23.609375 -33.984375 26.726562 -33.234375 29.5 -31.734375 C 32.269531 -30.242188 34.445312 -28.1875 36.03125 -25.5625 C 37.625 -22.9375 38.421875 -19.984375 38.421875 -16.703125 C 38.421875 -13.429688 37.625 -10.484375 36.03125 -7.859375 C 34.445312 -5.234375 32.269531 -3.171875 29.5 -1.671875 C 26.726562 -0.171875 23.609375 0.578125 20.140625 0.578125 Z M 20.140625 -6.015625 C 22.117188 -6.015625 23.898438 -6.46875 25.484375 -7.375 C 27.078125 -8.28125 28.328125 -9.546875 29.234375 -11.171875 C 30.140625 -12.796875 30.59375 -14.640625 30.59375 -16.703125 C 30.59375 -18.773438 30.140625 -20.617188 29.234375 -22.234375 C 28.328125 -23.859375 27.078125 -25.125 25.484375 -26.03125 C 23.898438 -26.945312 22.117188 -27.40625 20.140625 -27.40625 C 18.171875 -27.40625 16.390625 -26.945312 14.796875 -26.03125 C 13.203125 -25.125 11.953125 -23.859375 11.046875 -22.234375 C 10.140625 -20.617188 9.6875 -18.773438 9.6875 -16.703125 C 9.6875 -14.640625 10.140625 -12.796875 11.046875 -11.171875 C 11.953125 -9.546875 13.203125 -8.28125 14.796875 -7.375 C 16.390625 -6.46875 18.171875 -6.015625 20.140625 -6.015625 Z M 20.140625 -6.015625 "/>
      </g>
    </g>
  </g>
  <g fill="#000000" fill-opacity="1">
    <g transform="translate(77.251703, 54.434738)">
      <g>
        <path d="M 14.9375 0.578125 C 12.300781 0.578125 9.75 0.21875 7.28125 -0.5 C 4.8125 -1.21875 2.832031 -2.148438 1.34375 -3.296875 L 3.96875 -9.125 C 5.394531 -8.070312 7.09375 -7.222656 9.0625 -6.578125 C 11.039062 -5.941406 13.015625 -5.625 14.984375 -5.625 C 17.179688 -5.625 18.804688 -5.953125 19.859375 -6.609375 C 20.910156 -7.265625 21.4375 -8.132812 21.4375 -9.21875 C 21.4375 -10.007812 21.125 -10.664062 20.5 -11.1875 C 19.882812 -11.71875 19.085938 -12.140625 18.109375 -12.453125 C 17.140625 -12.773438 15.828125 -13.128906 14.171875 -13.515625 C 11.628906 -14.117188 9.546875 -14.722656 7.921875 -15.328125 C 6.296875 -15.929688 4.898438 -16.898438 3.734375 -18.234375 C 2.578125 -19.566406 2 -21.347656 2 -23.578125 C 2 -25.523438 2.523438 -27.285156 3.578125 -28.859375 C 4.628906 -30.429688 6.210938 -31.675781 8.328125 -32.59375 C 10.441406 -33.519531 13.03125 -33.984375 16.09375 -33.984375 C 18.21875 -33.984375 20.296875 -33.726562 22.328125 -33.21875 C 24.367188 -32.707031 26.15625 -31.976562 27.6875 -31.03125 L 25.296875 -25.15625 C 22.210938 -26.90625 19.125 -27.78125 16.03125 -27.78125 C 13.875 -27.78125 12.273438 -27.429688 11.234375 -26.734375 C 10.203125 -26.035156 9.6875 -25.113281 9.6875 -23.96875 C 9.6875 -22.820312 10.28125 -21.96875 11.46875 -21.40625 C 12.664062 -20.851562 14.492188 -20.304688 16.953125 -19.765625 C 19.492188 -19.160156 21.578125 -18.554688 23.203125 -17.953125 C 24.828125 -17.347656 26.21875 -16.390625 27.375 -15.078125 C 28.539062 -13.773438 29.125 -12.007812 29.125 -9.78125 C 29.125 -7.875 28.585938 -6.132812 27.515625 -4.5625 C 26.453125 -2.988281 24.851562 -1.738281 22.71875 -0.8125 C 20.582031 0.113281 17.988281 0.578125 14.9375 0.578125 Z M 14.9375 0.578125 "/>
      </g>
    </g>
  </g>
  <g fill="#000000" fill-opacity="1">
    <g transform="translate(109.122228, 54.434738)">
      <g>
        <path d="M 3.96875 -33.40625 L 11.6875 -33.40625 L 11.6875 -6.296875 L 28.453125 -6.296875 L 28.453125 0 L 3.96875 0 Z M 3.96875 -33.40625 "/>
      </g>
    </g>
  </g>
  <g fill="#000000" fill-opacity="1">
    <g transform="translate(139.370663, 54.434738)">
      <g>
        <path d="M 25.96875 -7.15625 L 10.453125 -7.15625 L 7.5 0 L -0.421875 0 L 14.46875 -33.40625 L 22.09375 -33.40625 L 37.046875 0 L 28.921875 0 Z M 23.53125 -13.03125 L 18.234375 -25.828125 L 12.9375 -13.03125 Z M 23.53125 -13.03125 "/>
      </g>
    </g>
  </g>
  <g fill="#000000" fill-opacity="1">
    <g transform="translate(177.347892, 54.434738)">
      <g>
        <path d="M 28.5 -17.375 C 30.40625 -16.769531 31.898438 -15.757812 32.984375 -14.34375 C 34.066406 -12.925781 34.609375 -11.1875 34.609375 -9.125 C 34.609375 -6.1875 33.46875 -3.929688 31.1875 -2.359375 C 28.914062 -0.785156 25.597656 0 21.234375 0 L 3.96875 0 L 3.96875 -33.40625 L 20.28125 -33.40625 C 24.351562 -33.40625 27.476562 -32.625 29.65625 -31.0625 C 31.84375 -29.507812 32.9375 -27.394531 32.9375 -24.71875 C 32.9375 -23.101562 32.546875 -21.65625 31.765625 -20.375 C 30.984375 -19.101562 29.894531 -18.101562 28.5 -17.375 Z M 11.640625 -27.59375 L 11.640625 -19.71875 L 19.328125 -19.71875 C 21.242188 -19.71875 22.691406 -20.050781 23.671875 -20.71875 C 24.660156 -21.382812 25.15625 -22.367188 25.15625 -23.671875 C 25.15625 -24.984375 24.660156 -25.960938 23.671875 -26.609375 C 22.691406 -27.265625 21.242188 -27.59375 19.328125 -27.59375 Z M 20.671875 -5.828125 C 22.703125 -5.828125 24.234375 -6.160156 25.265625 -6.828125 C 26.304688 -7.492188 26.828125 -8.523438 26.828125 -9.921875 C 26.828125 -12.691406 24.773438 -14.078125 20.671875 -14.078125 L 11.640625 -14.078125 L 11.640625 -5.828125 Z M 20.671875 -5.828125 "/>
      </g>
    </g>
  </g>
</svg>
